<svg xmlns="http://www.w3.org/2000/svg" width="184" height="154" viewBox="0 0 184 154" fill="none">
    <mask id="mask0_1582_1459" style="mask-type:luminance" maskUnits="userSpaceOnUse" x="0" y="0" width="184" height="154">
      <path d="M183.65 0H0.351562V153.817H183.65V0Z" fill="white"/>
    </mask>
    <g mask="url(#mask0_1582_1459)">
      <path d="M140.614 102.1L147.388 107.105C150.798 102.592 155.242 96.8359 158.549 91.775C158.84 91.33 158.4 90.7662 157.899 90.9437C154.721 92.0683 151.744 93.9647 149.77 92.948C149.072 92.5884 148.351 91.933 147.62 92.2222C147.3 92.3488 147.077 92.6355 146.869 92.9097C144.37 96.2065 141.872 99.5032 140.613 102.1H140.614Z" fill="white" stroke="#373737" stroke-width="0.7" stroke-linecap="round" stroke-linejoin="round"/>
      <path d="M76.1791 73.6445C80.0245 76.7064 83.8703 79.7685 87.7157 82.8303C89.3077 84.0979 90.9707 85.4609 91.6783 87.3686C92.2715 88.9678 92.1104 90.7382 92.3921 92.4207C92.5303 93.2451 92.7766 94.0824 92.6126 94.9021C92.4703 95.6125 92.0357 96.2237 91.6114 96.811C89.0398 100.372 86.4428 103.961 83.1894 106.911C82.7663 107.295 82.3166 107.677 81.7723 107.85C80.6784 108.197 79.5117 107.625 78.5779 106.958C76.9291 105.779 75.5541 104.263 74.2181 102.739C71.6905 99.8568 69.2508 96.8977 66.8809 93.8845C65.2226 91.7762 63.5948 89.6361 62.2066 87.3409C61.4494 86.0891 60.9987 84.8341 60.625 83.4192C63.0235 82.1171 75.2991 74.2563 76.1788 73.6448L76.1791 73.6445Z" fill="white" stroke="#373737" stroke-width="0.7" stroke-linecap="round" stroke-linejoin="round"/>
      <path d="M117.705 145.161L117.885 153.581C123.541 153.521 130.813 153.521 136.84 153.044C137.37 153.003 137.547 152.31 137.101 152.022C134.268 150.194 130.947 148.997 130.545 146.813C130.403 146.041 130.481 145.07 129.806 144.668C129.51 144.492 129.146 144.49 128.802 144.494C124.666 144.531 120.53 144.569 117.705 145.16V145.161Z" fill="white" stroke="#373737" stroke-width="0.7" stroke-linecap="round" stroke-linejoin="round"/>
      <path d="M75.8753 112.94C75.8753 112.94 96.7865 89.1678 109.481 75.2152C111.276 73.2419 113.238 71.1678 115.839 70.5742C118.635 69.936 121.491 71.1615 124.054 72.4492C133.282 77.0857 141.903 82.928 149.63 89.7806C147.077 95.012 142.726 102.104 139.487 106.673C131.875 99.9215 124.007 93.1537 118.444 87.5903C111.483 94.5519 109.477 96.3355 103.934 103.43C110.07 104.222 116.757 102.6 122.195 105.55C126.468 107.867 128.911 112.498 130.696 117.018C134.209 125.911 133.72 136.038 135.155 145.298C127.788 146.328 122.831 146.671 115.703 147.261C114.289 137.938 115.093 127.507 113.724 117.948C104.303 118.742 87.9204 120.904 82.8928 118.95C78.6884 117.317 75.875 112.94 75.875 112.94L75.8753 112.94Z" fill="#FF6600" stroke="#373737" stroke-width="0.7" stroke-linecap="round" stroke-linejoin="round"/>
      <path d="M183.115 77.7314C183.348 75.2246 183.93 71.4818 182.336 69.5331C180.596 67.4059 177.254 67.16 174.786 68.371C172.319 69.5824 170.944 71.8367 169.65 74.2616C170.594 72.5654 170.815 70.7457 170.947 68.8088C171.122 66.2611 170.123 63.2071 167.645 62.5881C166.588 62.324 165.467 62.5715 164.447 62.9562C161.378 64.1135 158.881 66.4744 157.01 69.1681C155.139 71.8622 153.244 75.5013 152.049 78.0964C163.668 78.0964 169.685 77.7314 183.115 77.7314Z" fill="#D2D2FF" stroke="#373737" stroke-width="0.7" stroke-linecap="round" stroke-linejoin="round"/>
      <path d="M51.1901 132.898C48.7062 130.394 45.7913 127.459 43.3074 124.955C40.6341 122.259 37.8417 119.486 34.2827 118.164C30.7237 116.843 26.1635 117.407 23.944 120.486C21.787 123.48 22.5172 127.696 24.123 131.018C21.8545 127.701 18.173 124.897 14.174 125.288C13.5801 125.345 12.9818 125.477 12.4693 125.783C11.3078 126.473 10.8013 127.946 10.886 129.295C10.9708 130.644 11.5412 131.908 13.1991 132.818C27.9373 132.818 33.447 132.899 51.1904 132.899L51.1901 132.898Z" fill="#D2D2FF" stroke="#373737" stroke-width="0.7" stroke-linecap="round" stroke-linejoin="round"/>
      <path d="M69.6523 75.4045C70.9632 74.7694 72.2999 73.957 72.928 72.6426C73.3081 71.848 73.3884 70.9479 73.4535 70.0694C73.5891 68.234 73.6727 66.3264 72.9864 64.6188C72.3156 62.9499 70.9657 61.6355 69.4796 60.6227C67.9934 59.6095 66.3509 58.8523 64.7906 57.9575C64.2249 57.6331 63.6527 57.2744 63.2834 56.737C62.936 56.232 62.7985 55.6133 62.5123 55.0709C61.9659 54.0354 60.8984 53.3458 59.7687 53.0383C58.639 52.7311 57.4443 52.7666 56.2797 52.8904C55.3124 52.9934 54.336 53.1554 53.373 53.0179C52.5618 52.9023 51.797 52.5788 51.0084 52.3558C50.0044 52.0719 48.9541 51.951 47.9117 51.999C47.016 52.0405 46.0989 52.217 45.3543 52.7164C44.1483 53.5251 43.6103 55.0156 43.3028 56.4349C42.8132 58.6943 42.7202 61.0645 43.2654 63.3114C43.8103 65.5582 45.0223 67.6747 46.8357 69.109C47.7877 69.8618 48.8963 70.4269 49.7264 71.3125C51.8784 73.6093 51.7521 77.5904 54.303 79.4339C55.7621 80.4886 57.7577 80.5197 59.4844 80.0106C61.2112 79.5015 62.7523 78.5203 64.3286 77.651C65.9049 76.7817 67.729 76.3354 69.6526 75.4039L69.6523 75.4045Z" fill="#373737" stroke="#373737" stroke-width="0.7" stroke-linecap="round" stroke-linejoin="round"/>
      <path d="M60.6097 71.1586C60.1329 71.0321 59.6015 71.1922 59.241 71.5289C58.8804 71.8656 58.6867 72.3609 58.6744 72.8543C58.6537 73.701 59.1835 74.5355 59.9583 74.8772C60.7334 75.2189 61.7067 75.0468 62.2403 74.3816C63.4046 76.1931 64.8634 78.4069 65.9623 80.1695C65.5132 80.5815 64.9149 80.8921 63.941 81.4295C67.2892 82.9986 74.5847 85.0529 74.5847 85.0529C74.5847 85.0529 74.1758 78.498 73.9028 75.1344C73.0473 75.7079 72.569 76.0018 71.8608 76.434C71.2499 75.4478 70.3884 74.3172 69.6564 73.2858C70.7832 72.5647 71.423 71.1514 71.2217 69.8289C71.1124 69.1122 70.7832 68.4489 70.4264 67.8176C69.2544 65.7438 67.7321 63.8682 65.9375 62.1889C64.4827 62.7844 62.7796 62.742 61.2909 62.1267C62.0742 64.6631 62.3779 69.5076 60.6097 71.1586Z" fill="white" stroke="#373737" stroke-width="0.7" stroke-linecap="round" stroke-linejoin="round"/>
      <path d="M66.4355 66.0974C67.0715 66.664 67.7292 67.2057 68.4066 67.7218C68.4311 67.7403 68.4572 67.762 68.4625 67.7921C68.4669 67.8175 68.455 67.8424 68.4427 67.8653C68.2361 68.256 67.8912 68.5716 67.4842 68.7434" stroke="#373737" stroke-width="0.7" stroke-linecap="round" stroke-linejoin="round"/>
      <path d="M80.5628 69.8216C78.8034 71.2192 77.044 72.6171 75.1539 74.2414C79.7026 79.4075 83.9337 84.8531 87.8152 90.5374C88.9832 92.2478 90.1848 94.0417 91.9847 95.0659C92.4357 95.3225 92.9295 95.5282 93.4477 95.5565C94.0761 95.5907 94.6901 95.3621 95.2495 95.0737C96.8276 94.2597 98.1872 92.8181 98.4388 91.0603C98.468 90.8558 98.4815 90.6426 98.4165 90.4463C98.3383 90.2101 98.1561 90.0254 97.9803 89.8496C94.3126 86.1832 90.828 82.3337 87.5335 78.1035C91.3475 70.3009 95.3339 63.1869 99.148 55.3843C99.8647 53.9179 100.595 52.4044 100.704 50.776C100.935 47.3486 98.4347 44.4055 96.0422 41.9404C90.9857 36.7313 84.2226 30.4666 78.7582 25.7983C75.1059 29.199 72.0924 32.8422 71.3066 33.1902C78.1382 40.0218 83.1014 45.092 88.7948 50.1655C86.1701 56.0266 83.2013 62.9206 80.5628 69.8216Z" fill="#373737" stroke="#373737" stroke-width="0.7" stroke-linecap="round" stroke-linejoin="round"/>
      <path d="M29.7521 57.9922L36.035 82.9174C36.035 82.9174 50.6058 84.8376 57.0671 85.4698C59.1987 84.2619 61.3305 83.054 63.4568 81.6498C67.6495 88.2835 71.8816 94.9678 77.3181 100.627C78.7555 102.124 80.3029 103.585 81.2009 105.456C82.9292 109.056 81.6223 113.835 78.0376 115.873C73.9447 109.264 66.382 101.805 61.42 95.5598C53.6086 95.8104 32.5238 94.7288 29.1121 92.2876C27.4906 91.1274 26.6225 89.1548 25.907 87.2936C23.5858 81.2551 21.6423 72.1742 18.3971 61.3247C18.3004 61.0013 29.7521 57.9922 29.7521 57.9922Z" fill="#373737" stroke="#373737" stroke-width="0.7" stroke-linecap="round" stroke-linejoin="round"/>
      <path d="M74.5859 85.0525C78.4725 90.2443 82.5064 95.3199 86.6721 100.291" stroke="#373737" stroke-width="0.7" stroke-linecap="round" stroke-linejoin="round"/>
      <path d="M67.291 74.4103C68.1789 74.0485 69.0375 73.6147 69.8554 73.1147" stroke="#373737" stroke-width="0.7" stroke-linecap="round" stroke-linejoin="round"/>
      <path d="M97.6602 103.663C99.9456 103.539 102.235 103.501 104.524 103.549L97.6602 103.663Z" fill="white"/>
      <path d="M97.6602 103.663C99.9456 103.539 102.235 103.501 104.524 103.549" stroke="#373737" stroke-width="0.7" stroke-linecap="round" stroke-linejoin="round"/>
      <path d="M122.535 0.235596C122.457 15.9753 122.379 31.7151 122.301 47.4548" stroke="#373737" stroke-width="0.7" stroke-linecap="round" stroke-linejoin="round"/>
      <path d="M140.615 28.5623V66.0975" stroke="#373737" stroke-width="0.7" stroke-linecap="round" stroke-linejoin="round"/>
      <path d="M15.3081 52.4579C15.4365 52.3078 15.4318 51.8612 15.3976 51.6665C15.3634 51.4717 15.2767 51.2911 15.2016 51.1084C15.0638 50.7739 14.9617 50.425 14.8973 50.0688C14.8364 49.7315 14.8455 49.3116 15.1401 49.1363C15.3433 49.0154 15.6134 49.0694 15.8078 49.2042C16.0022 49.3389 16.1379 49.5405 16.2716 49.7356C16.5606 50.1561 16.8696 50.5741 17.2798 50.8775C17.3712 50.945 17.4777 51.0258 17.4761 51.1395C17.4755 51.19 17.4522 51.2371 17.4284 51.2817C17.2518 51.6121 17.011 51.908 16.7236 52.1479C16.516 52.3213 16.2786 52.468 16.0141 52.5245C15.7497 52.581 15.4859 52.7679 15.3084 52.4576L15.3081 52.4579Z" fill="white" stroke="#373737" stroke-width="0.7" stroke-linecap="round" stroke-linejoin="round"/>
      <path d="M76.6442 32.3824C56.6165 44.1995 43.8337 51.1114 22.894 61.2247C19.0172 54.9452 14.2983 47.4978 10.875 40.7495C18.6359 35.5492 28.881 31.548 36.7113 27.3457C48.9458 20.7802 52.0041 18.9467 64.3611 12.8372C68.2746 19.4677 72.1879 26.0983 76.6442 32.3824Z" fill="#FF6600" stroke="#373737" stroke-width="0.7" stroke-linecap="round" stroke-linejoin="round"/>
      <path d="M27.1738 36.9295C27.7819 39.932 28.459 42.9206 29.2043 45.892C31.0852 45.0827 32.9256 44.1794 34.7164 43.1866C35.6932 44.8075 36.6702 46.4287 37.647 48.0496C38.1058 47.8081 38.5647 47.5666 39.0235 47.3248C37.7057 44.5283 35.1778 40.2288 33.5239 37.617C32.9602 37.8723 32.4932 38.2432 31.9291 38.4986C31.9291 38.4986 33.6634 41.132 33.8283 41.812C32.2831 42.6904 31.3785 42.9376 30.2162 43.5265C30.0098 41.1955 29.3396 39.2454 28.9631 36.1814C28.3638 36.3604 27.7646 36.5394 27.1741 36.9292L27.1738 36.9295Z" fill="white" stroke="#373737" stroke-width="0.7" stroke-linecap="round" stroke-linejoin="round"/>
      <path d="M48.543 25.3087C49.151 28.3111 49.8281 31.2998 50.5734 34.2712C52.4543 33.4618 54.2948 32.5585 56.0856 31.5658C57.0623 33.1867 58.0394 34.8079 59.0161 36.4288C59.475 36.1873 59.9338 35.9457 60.3927 35.7039C59.0749 32.9075 56.5469 28.6079 54.8931 25.9961C54.3293 26.2515 53.8623 26.6224 53.2982 26.8777C53.2982 26.8777 55.0325 29.5112 55.1974 30.1911C53.6522 31.0696 52.7477 31.3167 51.5853 31.9056C51.379 29.5746 50.7088 27.6246 50.3322 24.5605C49.733 24.7396 49.1337 24.9186 48.5433 25.3083L48.543 25.3087Z" fill="white" stroke="#373737" stroke-width="0.7" stroke-linecap="round" stroke-linejoin="round"/>
      <path d="M40.8909 29.872C39.7194 30.6078 39.0498 31.9721 38.8702 33.3437C38.6905 34.7152 38.9434 36.1062 39.2738 37.4494C39.6896 39.1404 40.2533 40.8439 41.3522 42.195C42.4512 43.5458 44.1842 44.4908 45.9078 44.243C47.2372 44.0517 48.4228 43.1526 49.0541 41.9673C49.6854 40.782 49.7384 38.7801 49.5268 37.647C49.1505 35.6316 47.5638 31.997 45.3833 30.4455C44.0633 29.5064 41.9107 29.2313 40.8906 29.872H40.8909Z" fill="white" stroke="#373737" stroke-width="0.7" stroke-linecap="round" stroke-linejoin="round"/>
      <path d="M42.1101 32.325C41.7502 32.3548 41.4311 32.5944 41.2345 32.8972C41.0379 33.1999 40.9493 33.5608 40.9003 33.9185C40.7568 34.9669 40.9264 36.0331 41.1695 37.063C41.3736 37.9276 41.6343 38.79 42.0881 39.5535C42.542 40.317 43.2075 40.9812 44.0382 41.2956C44.8689 41.61 45.8723 41.5302 46.5639 40.9724C47.1032 40.5372 47.4078 39.8585 47.4995 39.1716C47.5912 38.4847 47.4882 37.7856 47.328 37.1113C47.0215 35.8211 46.4888 34.5567 45.5919 33.58C44.6949 32.6032 43.4484 32.2141 42.1101 32.325Z" fill="#FF6600" stroke="#373737" stroke-width="0.7" stroke-linecap="round" stroke-linejoin="round"/>
      <path d="M16.0421 51.7454C17.1062 51.034 18.2265 50.452 19.3822 50.0101C19.5996 49.9272 19.8257 49.8481 20.0515 49.883C20.2773 49.9178 20.5038 50.0956 20.5593 50.3679C20.6479 50.8032 20.2911 51.1653 19.9742 51.3848C19.092 51.996 18.1577 52.4925 17.1916 52.8631C18.7908 52.4005 20.293 50.7884 21.321 51.2121C21.6988 51.3679 21.6903 52.2177 20.7999 52.7654C19.8898 53.3254 19.0088 53.7331 18.0999 54.2924C18.8929 53.8625 19.6856 53.4328 20.4786 53.0029C20.7205 52.8719 20.9711 52.7384 21.2352 52.7381C21.4993 52.7381 21.7826 52.9074 21.8687 53.2155C21.9488 53.5019 21.8367 53.8273 21.6576 54.0346C21.4786 54.2419 21.2434 54.3556 21.0144 54.4649C20.1916 54.8574 19.369 55.25 18.5462 55.6426C19.3596 55.2576 20.1781 54.8706 21.0336 54.6671C21.3232 54.598 21.7054 54.6096 21.8128 54.9485C21.9039 55.2356 21.7192 55.5374 21.5345 55.745C21.5345 55.745 20.7588 56.2701 20.2827 56.5967C20.2465 56.6216 22.1758 60.0612 22.1758 60.0612L21.0326 60.3941C21.0326 60.3941 20.5122 59.6639 18.8367 58.7723C18.0434 58.3502 17.2513 57.7905 16.8012 57.0948C16.077 55.9752 15.4812 54.6819 15.2146 53.2742C15.121 52.7793 15.1606 52.3342 16.0421 51.7447V51.7454Z" fill="white" stroke="#373737" stroke-width="0.7" stroke-linecap="round" stroke-linejoin="round"/>
      <path d="M20.3892 56.5525C19.9793 56.7193 19.5779 56.9426 19.2246 57.2199L20.3892 56.5525Z" fill="white"/>
      <path d="M20.3892 56.5525C19.9793 56.7193 19.5779 56.9426 19.2246 57.2199" stroke="#373737" stroke-width="0.7" stroke-linecap="round" stroke-linejoin="round"/>
      <path d="M71.2562 19.8717C71.0662 19.9257 70.6623 19.7345 70.4999 19.6223C70.3376 19.5102 70.2094 19.3557 70.075 19.2109C69.8288 18.9459 69.5543 18.7072 69.2578 18.5002C68.977 18.3039 68.5917 18.1368 68.3093 18.3309C68.1146 18.465 68.0508 18.7329 68.092 18.9656C68.1331 19.1984 68.2597 19.406 68.3809 19.6092C68.6422 20.0473 68.8929 20.5027 68.9971 21.002C69.0204 21.1132 69.0493 21.2436 69.1532 21.2897C69.1994 21.3101 69.2522 21.3089 69.3024 21.3057C69.6761 21.2834 70.0455 21.1883 70.3837 21.0275C70.6281 20.9113 70.8605 20.7571 71.0222 20.5404C71.184 20.3237 71.4641 20.1622 71.2562 19.8717Z" fill="white" stroke="#373737" stroke-width="0.7" stroke-linecap="round" stroke-linejoin="round"/>
      <path d="M70.3012 20.2426C69.2105 20.9115 68.2136 21.686 67.3295 22.551C67.1634 22.7136 66.9969 22.8861 66.9344 23.1056C66.8719 23.3251 66.9385 23.6053 67.1627 23.7695C67.5211 24.0318 67.9994 23.859 68.3311 23.6631C69.2551 23.1172 70.0964 22.4762 70.8367 21.7535C69.7484 23.0126 67.6561 23.7033 67.6119 24.8141C67.5955 25.2224 68.3713 25.5698 69.2406 24.99C70.1294 24.3974 70.8678 23.7677 71.7556 23.1756C71.0339 23.7161 70.3122 24.2567 69.5905 24.7972C69.3703 24.962 69.1445 25.1338 69.0339 25.3735C68.9234 25.6131 68.9592 25.9413 69.2032 26.1483C69.43 26.3408 69.7726 26.375 70.0355 26.2987C70.2984 26.2224 70.5003 26.0566 70.695 25.8945C71.3954 25.3113 72.0958 24.7281 72.7961 24.1452C72.1065 24.723 71.4133 25.3047 70.8709 25.9966C70.6872 26.2309 70.538 26.5826 70.8012 26.8219C71.0239 27.0245 71.3753 26.9831 71.641 26.902C71.641 26.902 72.1068 26.6847 72.6024 26.3885C72.6401 26.3662 74.8059 29.8586 74.8059 29.8586L76.0747 28.3891C76.0747 28.3891 75.6287 27.6112 75.5185 25.7171C75.4663 24.8201 75.2889 23.8669 74.8448 23.1672C74.1303 22.0415 73.2041 20.9599 72.0364 20.1298C71.6259 19.8377 71.2048 19.6883 70.3012 20.2426Z" fill="white" stroke="#373737" stroke-width="0.7" stroke-linecap="round" stroke-linejoin="round"/>
      <path d="M72.4395 26.4845C72.7563 26.2515 73.3672 25.7967 73.947 25.4202L72.4395 26.4845Z" fill="white"/>
      <path d="M72.4395 26.4845C72.7563 26.2515 73.3672 25.7967 73.947 25.4202" stroke="#373737" stroke-width="0.7" stroke-linecap="round" stroke-linejoin="round"/>
      <path d="M161.643 34.3354C161.246 34.4601 161.048 34.9859 161.24 35.3549C161.432 35.7239 161.945 35.8706 162.318 35.685C162.687 35.5009 162.88 35.0085 162.703 34.635C162.527 34.2616 162.041 34.2101 161.643 34.3354Z" fill="#373737" stroke="#373737" stroke-width="0.7" stroke-linecap="round" stroke-linejoin="round"/>
      <path d="M8.91601 99.0254C8.51903 99.15 8.32148 99.6758 8.51369 100.045C8.7059 100.414 9.21877 100.561 9.59125 100.375C9.96091 100.191 10.1531 99.6984 9.97692 99.325C9.80073 98.9516 9.31456 98.9 8.91601 99.0254Z" fill="#373737" stroke="#373737" stroke-width="0.7" stroke-linecap="round" stroke-linejoin="round"/>
      <path d="M160.096 124.512C159.699 124.637 159.501 125.163 159.693 125.532C159.886 125.901 160.398 126.048 160.771 125.862C161.141 125.678 161.333 125.185 161.157 124.812C160.98 124.439 160.494 124.387 160.096 124.512Z" fill="#373737" stroke="#373737" stroke-width="0.7" stroke-linecap="round" stroke-linejoin="round"/>
      <path d="M0.585938 68.3608C1.70181 68.6159 2.81769 68.8709 3.93357 69.1259" stroke="#373737" stroke-width="0.7" stroke-linecap="round" stroke-linejoin="round"/>
      <path d="M109.968 23.7053C109.539 24.4773 109.11 25.2496 108.682 26.0216" stroke="#373737" stroke-width="0.7" stroke-linecap="round" stroke-linejoin="round"/>
      <path d="M100.67 135.51C100.698 136.42 101.04 137.331 101.068 138.241" stroke="#373737" stroke-width="0.7" stroke-linecap="round" stroke-linejoin="round"/>
    </g>
  </svg>